<svg width="24" height="24" viewBox="0 0 24 24" fill="none" xmlns="http://www.w3.org/2000/svg">
<path fill-rule="evenodd" clip-rule="evenodd" d="M1.9999 11.9998C1.9999 12.552 2.44762 12.9997 2.9999 12.9997H18.9757C18.8901 13.148 18.7838 13.2876 18.657 13.4144L12.2931 19.7784C11.9025 20.1689 11.9025 20.8021 12.2931 21.1926C12.6836 21.5831 13.3168 21.5831 13.7073 21.1926L22.1926 12.7073C22.5831 12.3168 22.5831 11.6836 22.1926 11.2931L22.1924 11.293L13.7071 2.80767C13.3166 2.41715 12.6834 2.41715 12.2929 2.80767C11.9024 3.1982 11.9024 3.83136 12.2929 4.22189L18.657 10.586C18.7836 10.7126 18.8896 10.8518 18.9752 10.9998H2.9999C2.44762 10.9997 1.9999 11.4475 1.9999 11.9998Z" fill="black"/>
</svg>
