<?xml version="1.0" standalone="no"?>
<!DOCTYPE svg PUBLIC "-//W3C//DTD SVG 20010904//EN"
 "http://www.w3.org/TR/2001/REC-SVG-20010904/DTD/svg10.dtd">
<svg version="1.0" xmlns="http://www.w3.org/2000/svg"
 width="700.000000pt" height="700.000000pt" viewBox="0 0 700.000000 700.000000"
 preserveAspectRatio="xMidYMid meet">
<metadata>
Created by potrace 1.14, written by Peter Selinger 2001-2017
</metadata>
<g transform="translate(0.000000,700.000000) scale(0.100000,-0.100000)"
fill="#000000" stroke="none">
<path d="M3217 6123 c-1 0 -42 -4 -92 -8 -49 -3 -97 -8 -105 -10 -8 -2 -35 -6
-60 -9 -71 -9 -98 -15 -210 -42 -318 -78 -603 -211 -868 -406 -129 -95 -140
-105 -292 -257 -241 -242 -411 -498 -538 -811 -30 -73 -88 -245 -97 -285 -2
-11 -11 -51 -19 -90 -70 -324 -79 -602 -30 -926 8 -56 17 -105 18 -108 2 -3 7
-22 10 -41 10 -61 65 -247 101 -342 129 -336 320 -626 578 -880 66 -65 124
-118 129 -118 5 0 3 7 -6 15 -24 25 -130 174 -176 250 -144 236 -275 575 -315
818 -3 18 -10 56 -15 85 -24 137 -33 460 -16 627 6 66 32 218 52 310 2 11 6
29 8 40 38 179 167 487 284 680 137 224 370 489 567 645 193 153 441 294 667
379 165 63 294 96 523 136 116 20 435 26 593 12 71 -7 176 -23 262 -41 14 -3
39 -8 55 -12 183 -37 472 -151 665 -262 47 -27 213 -135 233 -152 35 -29 90
-70 95 -70 7 0 -59 69 -168 178 -363 362 -877 611 -1400 677 -115 14 -424 28
-433 18z"/>
<path d="M5255 5210 c10 -17 110 -159 124 -176 18 -22 147 -250 184 -325 118
-244 198 -519 231 -795 15 -133 14 -418 -3 -529 -6 -38 -13 -88 -16 -110 -36
-238 -155 -566 -292 -803 -206 -357 -531 -692 -883 -912 -222 -139 -522 -261
-775 -316 -64 -14 -117 -23 -170 -29 -33 -4 -64 -10 -69 -13 -20 -11 -395 -9
-496 4 -129 16 -178 23 -210 30 -14 3 -32 7 -40 9 -320 69 -693 240 -970 445
-44 33 -80 57 -80 52 0 -11 185 -198 265 -268 550 -478 1294 -686 2020 -564
330 56 637 175 920 358 87 56 195 134 232 167 138 123 201 185 263 253 411
458 636 1042 634 1647 -2 597 -202 1143 -587 1600 -77 91 -302 312 -282 275z"/>
</g>
</svg>
