<?xml version="1.0" standalone="no"?>
<!DOCTYPE svg PUBLIC "-//W3C//DTD SVG 20010904//EN"
 "http://www.w3.org/TR/2001/REC-SVG-20010904/DTD/svg10.dtd">
<svg version="1.0" xmlns="http://www.w3.org/2000/svg"
 width="768.000000pt" height="768.000000pt" viewBox="0 0 768.000000 768.000000"
 preserveAspectRatio="xMidYMid meet">
<metadata>
Created by potrace 1.14, written by Peter Selinger 2001-2017
</metadata>
<g transform="translate(0.000000,768.000000) scale(0.100000,-0.100000)"
fill="#000000" stroke="none">
<path d="M819 7678 c-3 -6 -4 -5756 -1 -5753 2 2 16 0 31 -5 16 -4 34 -4 41 0
7 5 23 5 35 0 12 -5 28 -5 35 0 7 5 23 5 34 0 12 -4 31 -4 43 1 12 4 25 4 28
-1 3 -5 18 -5 35 0 17 5 30 6 30 2 0 -8 198 -7 206 1 3 3 18 2 33 -3 16 -4 34
-4 41 0 7 4 25 4 40 0 15 -4 33 -4 40 0 7 5 23 5 34 0 12 -4 30 -4 41 0 11 4
34 4 52 -1 18 -4 35 -3 38 1 3 5 18 5 34 0 15 -4 34 -4 41 0 7 4 25 4 40 0 15
-4 33 -4 40 0 7 5 23 5 34 0 12 -4 30 -4 41 0 19 7 85 3 93 -5 3 -2 12 0 21 5
10 5 23 5 30 1 7 -5 28 -5 46 -1 18 4 39 4 46 0 7 -5 22 -4 35 0 12 5 25 6 28
3 7 -8 141 -7 153 0 5 3 15 2 23 -3 7 -4 23 -4 36 0 12 5 25 6 28 3 8 -8 196
-9 196 -1 0 4 13 3 29 -2 15 -4 34 -4 42 0 7 5 20 5 28 1 9 -4 30 -5 46 -2
l30 6 0 2878 1 2877 -988 0 c-543 0 -989 -1 -989 -2z"/>
<path d="M2810 1921 c-13 -5 -15 -121 -15 -964 l0 -957 1981 0 1980 0 0 959 0
959 -39 4 c-21 2 -40 0 -43 -3 -2 -4 -18 -4 -34 1 -16 5 -32 5 -35 0 -3 -4
-20 -4 -39 0 -19 4 -40 4 -47 0 -7 -5 -22 -4 -35 0 -12 5 -25 6 -28 3 -8 -8
-112 -6 -126 2 -5 3 -10 3 -10 -2 0 -4 -16 -8 -35 -8 -19 0 -35 3 -35 7 0 4
-13 3 -30 -2 -17 -5 -32 -5 -35 0 -3 5 -15 6 -28 1 -13 -5 -30 -5 -38 -1 -8 5
-21 5 -28 0 -8 -4 -27 -4 -42 0 -16 5 -29 6 -29 2 0 -8 -68 -7 -76 1 -3 3 -16
2 -28 -3 -13 -4 -28 -5 -35 -1 -7 5 -30 5 -52 1 -21 -4 -39 -4 -39 1 0 4 -12
4 -28 0 -15 -5 -37 -5 -49 0 -12 4 -25 4 -28 -1 -3 -5 -18 -5 -35 0 -17 5 -30
6 -30 2 0 -4 -16 -7 -35 -7 -19 0 -35 3 -35 7 0 4 -12 3 -28 -1 -15 -5 -37 -5
-49 0 -12 4 -25 4 -28 -1 -3 -5 -18 -5 -35 0 -17 5 -30 6 -30 2 0 -4 -16 -7
-35 -7 -19 0 -35 3 -35 7 0 4 -12 3 -28 -1 -15 -5 -37 -5 -48 -1 -11 5 -27 4
-34 0 -7 -5 -23 -5 -34 -1 -12 4 -32 5 -46 1 -14 -4 -37 -3 -52 1 -16 4 -28 5
-28 1 0 -4 -16 -7 -35 -7 -19 0 -35 3 -35 7 0 4 -13 3 -30 -2 -17 -5 -32 -5
-35 0 -3 5 -15 6 -28 1 -13 -5 -30 -5 -38 -1 -8 5 -21 5 -28 0 -8 -4 -27 -4
-42 0 -16 5 -29 6 -29 2 0 -8 -68 -7 -76 1 -3 3 -16 2 -28 -3 -13 -4 -28 -5
-35 -1 -7 5 -30 5 -52 1 -21 -4 -39 -4 -39 1 0 4 -12 4 -28 0 -15 -5 -37 -5
-49 0 -12 4 -25 4 -28 -1 -3 -5 -18 -5 -35 0 -17 5 -30 6 -30 2 0 -4 -16 -7
-35 -7 -19 0 -35 3 -35 7 0 4 -12 3 -28 -1 -15 -5 -37 -5 -49 0 -12 4 -25 4
-28 -1 -3 -5 -18 -5 -35 0 -17 5 -30 6 -30 2 0 -4 -16 -7 -35 -7 -19 0 -35 3
-35 7 0 4 -12 3 -27 -1 -16 -5 -37 -5 -48 -1 -11 4 -27 4 -36 -1 -9 -5 -19 -6
-22 -3 -7 8 -95 9 -102 2 -4 -3 -20 -2 -36 2 -16 5 -31 5 -34 0 -3 -4 -20 -4
-39 0 -19 4 -40 4 -47 0 -7 -5 -22 -5 -34 0 -12 5 -27 5 -34 1 -7 -5 -30 -5
-52 -1 -22 4 -42 4 -44 -1 -3 -4 -19 -4 -35 1 -16 5 -32 5 -35 0 -3 -4 -20 -4
-39 0 -19 4 -40 4 -47 0 -7 -5 -22 -4 -35 0 -12 5 -24 6 -28 3 -7 -7 -111 -7
-123 0 -5 3 -15 2 -22 -3 -8 -4 -27 -4 -42 0 -16 5 -29 5 -29 0 0 -4 -15 -5
-32 -1 -18 4 -48 4 -65 0 -18 -3 -33 -3 -33 2 0 4 -13 4 -28 -1 -16 -4 -35 -4
-43 0 -8 4 -21 5 -29 1z"/>
</g>
</svg>
