<svg xmlns="http://www.w3.org/2000/svg" viewBox="0 0 1200 600" fill="none">
  <defs>
    <linearGradient id="heroGradient" x1="0%" y1="0%" x2="100%" y2="100%">
      <stop offset="0%" style="stop-color:#0F766E;stop-opacity:0.1" />
      <stop offset="100%" style="stop-color:#0F766E;stop-opacity:0.05" />
    </linearGradient>
  </defs>

  <!-- Background -->
  <rect width="1200" height="600" fill="#FFFFFF"/>
  <rect width="1200" height="600" fill="url(#heroGradient)"/>

  <!-- Compyle Logo Mark - Large -->
  <g transform="translate(150, 200)">
    <rect x="0" y="0" width="20" height="120" rx="4" fill="#0F766E"/>
    <rect x="30" y="30" width="20" height="90" rx="4" fill="#0F766E"/>
    <rect x="60" y="60" width="20" height="60" rx="4" fill="#0F766E"/>
    <rect x="90" y="30" width="20" height="90" rx="4" fill="#0F766E"/>
  </g>

  <!-- Main Heading -->
  <text x="400" y="150" font-family="system-ui, -apple-system, sans-serif" font-size="56" font-weight="700" fill="#001F1A">
    The Coding Agent
  </text>
  <text x="400" y="220" font-family="system-ui, -apple-system, sans-serif" font-size="56" font-weight="700" fill="#0F766E">
    That Asks Before It Builds
  </text>

  <!-- Subheading -->
  <text x="400" y="290" font-family="system-ui, -apple-system, sans-serif" font-size="20" fill="#4B5563">
    Keep full control. Skip the rework. Build with confidence.
  </text>

  <!-- Three Key Features -->
  <g transform="translate(350, 380)">
    <!-- Feature 1: Question Icon -->
    <circle cx="40" cy="40" r="40" fill="#0F766E" opacity="0.1"/>
    <text x="15" y="55" font-family="system-ui, -apple-system, sans-serif" font-size="40" fill="#0F766E">?</text>
    <text x="0" y="100" font-family="system-ui, -apple-system, sans-serif" font-size="16" font-weight="600" fill="#001F1A">Questions</text>
    <text x="-20" y="125" font-family="system-ui, -apple-system, sans-serif" font-size="13" fill="#666">Before guessing</text>
  </g>

  <g transform="translate(650, 380)">
    <!-- Feature 2: Plan Icon -->
    <circle cx="40" cy="40" r="40" fill="#0F766E" opacity="0.1"/>
    <rect x="20" y="20" width="40" height="40" rx="4" fill="none" stroke="#0F766E" stroke-width="3"/>
    <line x1="30" y1="35" x2="50" y2="35" stroke="#0F766E" stroke-width="2"/>
    <line x1="30" y1="45" x2="50" y2="45" stroke="#0F766E" stroke-width="2"/>
    <text x="0" y="100" font-family="system-ui, -apple-system, sans-serif" font-size="16" font-weight="600" fill="#001F1A">Planning</text>
    <text x="-15" y="125" font-family="system-ui, -apple-system, sans-serif" font-size="13" fill="#666">Before building</text>
  </g>

  <g transform="translate(950, 380)">
    <!-- Feature 3: Check Icon -->
    <circle cx="40" cy="40" r="40" fill="#0F766E" opacity="0.1"/>
    <polyline points="25,45 35,55 55,35" fill="none" stroke="#0F766E" stroke-width="4" stroke-linecap="round" stroke-linejoin="round"/>
    <text x="5" y="100" font-family="system-ui, -apple-system, sans-serif" font-size="16" font-weight="600" fill="#001F1A">Validation</text>
    <text x="-5" y="125" font-family="system-ui, -apple-system, sans-serif" font-size="13" fill="#666">In real-time</text>
  </g>
</svg>
