<?xml version="1.0" standalone="no"?>
<!DOCTYPE svg PUBLIC "-//W3C//DTD SVG 20010904//EN"
 "http://www.w3.org/TR/2001/REC-SVG-20010904/DTD/svg10.dtd">
<svg version="1.0" xmlns="http://www.w3.org/2000/svg"
 width="256.000000pt" height="256.000000pt" viewBox="0 0 256.000000 256.000000"
 preserveAspectRatio="xMidYMid meet">
<metadata>
Created by potrace 1.14, written by Peter Selinger 2001-2017
</metadata>
<g transform="translate(0.000000,256.000000) scale(0.100000,-0.100000)"
fill="#000000" stroke="none">
<path d="M0 1280 l0 -1280 1280 0 1280 0 0 1280 0 1280 -1280 0 -1280 0 0
-1280z m1074 627 l5 -67 -24 17 c-34 25 -34 29 -24 124 19 164 23 156 43 -74z
m91 41 c4 -50 4 -88 -1 -88 -5 0 -18 7 -28 15 -10 8 -23 12 -27 9 -5 -3 -9 1
-9 8 0 22 30 192 37 208 8 20 19 -41 28 -152z m81 82 c4 -39 10 -73 15 -75 4
-3 15 21 24 52 25 91 25 90 35 73 5 -8 12 -38 16 -67 3 -29 10 -51 14 -48 5 3
16 28 25 56 19 57 30 52 41 -19 9 -57 20 -61 35 -12 7 22 15 40 19 40 4 0 14
-24 22 -52 l15 -53 13 28 c18 37 27 34 41 -13 14 -45 17 -47 35 -22 11 15 14
14 28 -20 11 -25 21 -36 31 -32 9 4 19 -6 29 -30 8 -20 19 -36 24 -36 5 0 32
-42 60 -93 56 -100 78 -192 61 -252 -5 -16 -9 -47 -9 -67 0 -26 -4 -38 -14
-38 -19 0 -25 -19 -15 -52 5 -20 4 -28 -5 -28 -7 0 -18 -12 -25 -27 -32 -72
-87 -175 -96 -183 -7 -6 -15 -2 -22 10 -10 15 -8 23 9 45 19 25 20 27 2 46
-17 18 -16 20 6 44 l23 25 -23 25 -23 25 23 25 23 25 -21 23 c-19 21 -20 25
-8 42 12 17 12 23 -5 46 -13 18 -15 29 -7 37 7 7 5 19 -10 40 -12 16 -19 32
-16 34 9 9 -74 125 -126 176 -27 27 -50 54 -50 61 0 6 -11 11 -24 11 -16 0
-27 7 -31 20 -4 14 -15 20 -35 20 -15 0 -30 7 -34 15 -3 9 -18 15 -39 15 -41
0 -97 18 -97 32 0 26 44 198 51 198 4 0 11 -32 15 -70z m-273 -102 l4 -117
-19 24 c-17 22 -19 35 -12 118 6 85 14 125 20 102 1 -6 4 -63 7 -127z m-95
-53 c0 -69 -3 -101 -8 -85 -4 14 -8 75 -8 135 0 69 3 101 8 85 4 -14 8 -74 8
-135z m762 -855 c-6 -11 -16 -20 -22 -20 -6 0 -3 9 7 20 10 11 20 20 22 20 2
0 -1 -9 -7 -20z m153 -177 c-5 -12 -7 -12 -14 -1 -13 20 -11 28 5 22 8 -3 12
-12 9 -21z m-66 -16 c12 -11 29 -17 37 -14 22 9 20 -6 -3 -27 -11 -10 -22 -28
-25 -41 -3 -13 -19 -33 -35 -44 -16 -12 -31 -31 -34 -44 -4 -13 -19 -27 -37
-34 -16 -6 -30 -19 -30 -27 0 -17 -45 -40 -60 -31 -4 3 -11 -6 -14 -20 -7 -27
-42 -35 -64 -13 -9 9 -13 4 -18 -20 -4 -18 -12 -32 -20 -32 -17 0 -44 28 -44
46 0 8 -4 12 -10 9 -5 -3 -10 -18 -10 -33 -1 -65 -37 -57 -60 13 -13 38 -14
39 -21 15 -4 -14 -7 -40 -8 -57 -2 -59 -35 -33 -54 42 -13 48 -30 60 -35 23
-15 -133 -24 -135 -53 -11 -27 110 -25 125 12 142 25 11 33 11 39 1 5 -8 17
-10 31 -6 29 9 127 25 192 33 30 3 47 10 47 18 0 21 14 25 49 15 30 -8 31 -7
31 20 l0 29 35 -15 c48 -20 52 -18 47 22 l-4 36 47 -28 48 -28 -6 30 c-3 16
-9 38 -13 48 -9 22 6 16 43 -17z m-838 -239 c1 -38 -3 -68 -8 -68 -12 0 -23
168 -14 210 7 34 8 34 14 -20 4 -30 7 -85 8 -122z m-102 70 c-2 -13 -4 -3 -4
22 0 25 2 35 4 23 2 -13 2 -33 0 -45z m196 -113 c-7 -103 -16 -88 -31 55 -8
73 -7 88 7 104 15 17 16 16 23 -25 4 -24 4 -84 1 -134z m100 100 c8 -53 -2
-195 -14 -195 -8 0 -24 69 -34 151 -6 48 -4 60 11 76 25 26 30 22 37 -32z"/>
</g>
</svg>
